<svg xmlns="http://www.w3.org/2000/svg" shape-rendering="geometricPrecision" text-rendering="geometricPrecision" image-rendering="optimizeQuality" fill-rule="evenodd" clip-rule="evenodd" viewBox="0 0 512 466.384"><path d="M394.756 231.898c32.372 0 61.687 13.124 82.904 34.341C498.876 287.455 512 316.768 512 349.14c0 32.371-13.124 61.686-34.34 82.903-21.217 21.216-50.532 34.341-82.904 34.341s-61.684-13.125-82.901-34.341a117.686 117.686 0 01-15.626-19.337l.006.01H0c0-121.561 71.438-75.944 144.558-136.692 2.246-5.026 3.964-10.581 5.512-15.953-12.098-10.613-21.939-20.962-24.99-41.716a21.94 21.94 0 01-7.055-2.55c-5.419-3.078-9.116-8.113-11.539-13.732-2.631-6.095-3.815-13.171-4.086-18.494-.563-10.978-.461-26.286 10.761-32.188-1.506-26.642 3.215-69.333-24.323-77.662C142.907 6.916 205.227-29.424 252.023 30.012c52.404 2.752 73.52 81.122 40.067 122.466l-.16 2.04c3.716-.017 7.309.785 10.522 2.5 4.298 2.298 7.573 5.972 9.252 11.181 3.778 11.736-3.753 26.779-7.61 37.672-1.423 3.938-2.878 6.816-6.127 9.395-2.711 2.153-5.679 3.285-9.566 3.565-1.773 17.656-10.191 27.785-21.47 38.691 2.869 6.116 6.123 12.311 9.881 17.668a64.108 64.108 0 002.364 3.164 143.719 143.719 0 0015.134 10.294 117.664 117.664 0 0117.545-22.409c21.217-21.217 50.529-34.341 82.901-34.341zm-.006 123.173l45.859.586c2.276.053 4.007.591 5.287 1.818 1.322 1.267 1.922 3.004 1.89 5.393 0 6.008-.566 12.506-.359 18.426 0 1.973-.512 3.597-1.557 4.843l-.064.076c-1.152 1.325-2.765 2.053-4.858 2.149-22.421 0-44.845-.09-67.267-.117-5.28.01-7.817.01-9.701-1.948-1.747-1.816-1.745-4.103-1.726-8.48l-.002-3.098-.584-62.879c-.03-3.448.544-5.867 2.242-7.614 1.694-1.735 4.13-2.435 7.763-2.42l15.471-.204c7.028-.077 7.909 3.144 7.964 8.032-.083 15.145-.239 30.292-.358 45.437zm-126.317-74.66c-3.38-4.886-6.356-10.322-9.014-15.77l-3.565 3.377c-15.71 15.162-31.561 22.428-47.986 22.27-16.278-.155-32.201-7.616-48.272-21.912l-1.34-1.188c-1.472 4.815-3.144 9.673-5.278 14.217l30.311 89.777 16.903-42.476-8.288-9.052c-6.225-9.103-4.087-19.43 7.454-21.297 3.896-.634 8.278-.241 12.516-.241 4.485 0 9.481-.416 13.737.52 10.71 2.366 11.828 12.753 6.488 21.018l-8.288 9.052 16.903 42.476 27.719-90.771zm-12.212-28.238c13.453-12.734 22.97-23.264 20.941-47.448 2.62 1.732 5.25 2.739 7.86 2.878 5.913.313 7.018-1.381 8.668-6.059l6.903-19.552c5.054-18.702-11.012-19.487-22.153-11.045 10.526-61.409-10.129-81.064-33.214-92.691-40.185 32.357-51.298 10.405-88.371 36.054-17.374 12.017-23.154 29.357-18.26 51.553-12.254-4.471-20.856-7.876-24.555 2.71-.421 3.042-.548 11.449-.395 14.432.38 7.428 2.933 19.03 9.935 23.011 3.512 1.999 7.538 1.762 11.796.458.533 22.072 8.565 32.709 19.3 42.6 16.494 15.04 35.948 33.204 60.268 29.449 17.279-2.936 28.031-13.803 41.277-26.35zm138.535-2.647c55.018 0 99.616 44.598 99.616 99.614 0 55.017-44.598 99.616-99.616 99.616-55.015 0-99.614-44.599-99.614-99.616 0-55.016 44.599-99.614 99.614-99.614z"/></svg>