<?xml version="1.0" encoding="utf-8"?>
<!-- Generator: Adobe Illustrator 26.0.1, SVG Export Plug-In . SVG Version: 6.00 Build 0)  -->
<svg version="1.1" id="Layer_1" xmlns="http://www.w3.org/2000/svg" xmlns:xlink="http://www.w3.org/1999/xlink" x="0px" y="0px"
	 viewBox="0 0 38 41.95" style="enable-background:new 0 0 38 41.95;" xml:space="preserve">
<style type="text/css">
	.st0{fill:#FFFFFF;}
	.st1{fill:#3858A7;}
	.st2{fill:none;stroke:#000000;stroke-miterlimit:10;}
	.st3{fill:#3B3B4D;}
	.st4{fill:#28ABE2;}
	.st5{fill:#2D2D35;}
	.st6{fill:#218CB2;}
	.st7{fill:#636464;}
	.st8{fill:#184C7B;}
	.st9{fill:#0D1337;}
	.st10{fill:#5B8E3E;}
	.st11{fill:#FDB515;}
	.st12{fill:#E02129;}
	.st13{fill:#3A78BD;}
	.st14{fill:#EC2C25;}
	.st15{fill:#1B4894;}
	.st16{fill:#234093;}
	.st17{fill:#243E96;}
	.st18{fill:#70C8BC;}
</style>
<g>
	<path d="M8.83,30.89c0-1.6,1.3-2.9,2.9-2.9c1.6,0,2.9,1.3,2.9,2.9c0,1.6-1.3,2.9-2.9,2.9C10.13,33.79,8.83,32.49,8.83,30.89z"/>
	<path d="M8.83,21.88c0-1.6,1.3-2.9,2.9-2.9c1.6,0,2.9,1.3,2.9,2.9c0,1.61-1.3,2.9-2.9,2.9C10.13,24.78,8.83,23.49,8.83,21.88z"/>
	<path d="M8.83,12.88c0-1.61,1.3-2.9,2.9-2.9c1.6,0,2.9,1.29,2.9,2.9c0,1.6-1.3,2.9-2.9,2.9C10.13,15.78,8.83,14.48,8.83,12.88z"/>
	<path d="M8.96,4.74h5.54c-0.37,1.18-1.47,2.03-2.77,2.03C10.43,6.77,9.33,5.92,8.96,4.74z"/>
	<path d="M37.13,11.69v22.36c0,3.83-3.11,6.94-6.94,6.94H7.83c-3.84,0-6.95-3.11-6.95-6.94V11.69c0-3.84,3.11-6.95,6.95-6.95h0.41
		v30.03h6.98V4.74h2.7v6.92h3.25c1.58,0,2.86,1.28,2.86,2.86s-1.28,2.86-2.86,2.86h-3.25v7l6.52,10.39h8.24l-7.16-11.42
		c3.31-1.63,5.49-5.03,5.49-8.83c0-5.06-3.83-9.24-8.75-9.78h7.93C34.02,4.74,37.13,7.85,37.13,11.69z"/>
	<path class="st0" d="M14.63,30.89c0,1.6-1.3,2.9-2.9,2.9c-1.6,0-2.9-1.3-2.9-2.9c0-1.6,1.3-2.9,2.9-2.9
		C13.33,27.99,14.63,29.29,14.63,30.89z"/>
	<path class="st0" d="M14.63,21.88c0,1.61-1.3,2.9-2.9,2.9c-1.6,0-2.9-1.29-2.9-2.9c0-1.6,1.3-2.9,2.9-2.9
		C13.33,18.98,14.63,20.28,14.63,21.88z"/>
	<path class="st0" d="M14.63,12.88c0,1.6-1.3,2.9-2.9,2.9c-1.6,0-2.9-1.3-2.9-2.9c0-1.61,1.3-2.9,2.9-2.9
		C13.33,9.98,14.63,11.27,14.63,12.88z"/>
	<path class="st8" d="M14.63,3.87c0,0.28-0.04,0.56-0.12,0.81c0,0.02-0.01,0.04-0.01,0.06c-0.37,1.18-1.47,2.03-2.77,2.03
		c-1.3,0-2.4-0.85-2.77-2.03c0-0.02-0.01-0.04-0.01-0.06C8.87,4.43,8.83,4.15,8.83,3.87c0-1.6,1.3-2.9,2.9-2.9
		C13.33,0.97,14.63,2.27,14.63,3.87z"/>
	<path class="st10" d="M14.63,30.89c0,1.6-1.3,2.9-2.9,2.9c-1.6,0-2.9-1.3-2.9-2.9c0-1.6,1.3-2.9,2.9-2.9
		C13.33,27.99,14.63,29.29,14.63,30.89z"/>
	<path class="st11" d="M14.63,21.88c0,1.61-1.3,2.9-2.9,2.9c-1.6,0-2.9-1.29-2.9-2.9c0-1.6,1.3-2.9,2.9-2.9
		C13.33,18.98,14.63,20.28,14.63,21.88z"/>
	<path class="st12" d="M14.63,12.88c0,1.6-1.3,2.9-2.9,2.9c-1.6,0-2.9-1.3-2.9-2.9c0-1.61,1.3-2.9,2.9-2.9
		C13.33,9.98,14.63,11.27,14.63,12.88z"/>
</g>
</svg>
