<?xml version="1.0" encoding="utf-8"?>
<!-- Generator: Adobe Illustrator 26.0.1, SVG Export Plug-In . SVG Version: 6.00 Build 0)  -->
<svg version="1.1" id="Layer_1" xmlns="http://www.w3.org/2000/svg" xmlns:xlink="http://www.w3.org/1999/xlink" x="0px" y="0px"
	 viewBox="0 0 37.53 41.43" style="enable-background:new 0 0 37.53 41.43;" xml:space="preserve">
<style type="text/css">
	.st0{fill:#FFFFFF;}
	.st1{fill:#3858A7;}
	.st2{fill:none;stroke:#000000;stroke-miterlimit:10;}
	.st3{fill:#3B3B4D;}
	.st4{fill:#28ABE2;}
	.st5{fill:#2D2D35;}
	.st6{fill:#218CB2;}
	.st7{fill:#636464;}
	.st8{fill:#184C7B;}
	.st9{fill:#0D1337;}
	.st10{fill:#5B8E3E;}
	.st11{fill:#FDB515;}
	.st12{fill:#E02129;}
	.st13{fill:#3A78BD;}
	.st14{fill:#EC2C25;}
	.st15{fill:#1B4894;}
	.st16{fill:#234093;}
	.st17{fill:#243E96;}
	.st18{fill:#70C8BC;}
</style>
<g>
	<path d="M8.59,30.63c0-1.6,1.3-2.9,2.9-2.9c1.6,0,2.9,1.3,2.9,2.9c0,1.6-1.3,2.9-2.9,2.9C9.89,33.53,8.59,32.23,8.59,30.63z"/>
	<path d="M8.59,21.62c0-1.6,1.3-2.9,2.9-2.9c1.6,0,2.9,1.3,2.9,2.9c0,1.61-1.3,2.9-2.9,2.9C9.89,24.52,8.59,23.23,8.59,21.62z"/>
	<path d="M8.59,12.62c0-1.61,1.3-2.9,2.9-2.9c1.6,0,2.9,1.29,2.9,2.9c0,1.6-1.3,2.9-2.9,2.9C9.89,15.52,8.59,14.22,8.59,12.62z"/>
	<path d="M8.72,4.48h5.54c-0.37,1.18-1.47,2.03-2.77,2.03C10.19,6.51,9.09,5.66,8.72,4.48z"/>
	<path class="st0" d="M36.89,11.43v22.36c0,3.83-3.11,6.94-6.94,6.94H7.59c-3.84,0-6.95-3.11-6.95-6.94V11.43
		c0-3.84,3.11-6.95,6.95-6.95H8v30.03h6.98V4.48h2.7v6.92h3.25c1.58,0,2.86,1.28,2.86,2.86s-1.28,2.86-2.86,2.86h-3.25v7l6.52,10.39
		h8.24l-7.16-11.42c3.31-1.63,5.49-5.03,5.49-8.83c0-5.06-3.83-9.24-8.75-9.78h7.93C33.78,4.48,36.89,7.59,36.89,11.43z"/>
	<path class="st0" d="M14.39,30.63c0,1.6-1.3,2.9-2.9,2.9c-1.6,0-2.9-1.3-2.9-2.9c0-1.6,1.3-2.9,2.9-2.9
		C13.09,27.73,14.39,29.03,14.39,30.63z"/>
	<path class="st0" d="M14.39,21.62c0,1.61-1.3,2.9-2.9,2.9c-1.6,0-2.9-1.29-2.9-2.9c0-1.6,1.3-2.9,2.9-2.9
		C13.09,18.72,14.39,20.02,14.39,21.62z"/>
	<path class="st0" d="M14.39,12.62c0,1.6-1.3,2.9-2.9,2.9c-1.6,0-2.9-1.3-2.9-2.9c0-1.61,1.3-2.9,2.9-2.9
		C13.09,9.72,14.39,11.01,14.39,12.62z"/>
	<path class="st8" d="M14.39,3.61c0,0.28-0.04,0.56-0.12,0.81c0,0.02-0.01,0.04-0.01,0.06c-0.37,1.18-1.47,2.03-2.77,2.03
		c-1.3,0-2.4-0.85-2.77-2.03c0-0.02-0.01-0.04-0.01-0.06C8.63,4.17,8.59,3.89,8.59,3.61c0-1.6,1.3-2.9,2.9-2.9
		C13.09,0.71,14.39,2.01,14.39,3.61z"/>
	<path class="st10" d="M14.39,30.63c0,1.6-1.3,2.9-2.9,2.9c-1.6,0-2.9-1.3-2.9-2.9c0-1.6,1.3-2.9,2.9-2.9
		C13.09,27.73,14.39,29.03,14.39,30.63z"/>
	<path class="st11" d="M14.39,21.62c0,1.61-1.3,2.9-2.9,2.9c-1.6,0-2.9-1.29-2.9-2.9c0-1.6,1.3-2.9,2.9-2.9
		C13.09,18.72,14.39,20.02,14.39,21.62z"/>
	<path class="st12" d="M14.39,12.62c0,1.6-1.3,2.9-2.9,2.9c-1.6,0-2.9-1.3-2.9-2.9c0-1.61,1.3-2.9,2.9-2.9
		C13.09,9.72,14.39,11.01,14.39,12.62z"/>
</g>
</svg>
