<?xml version="1.0" encoding="utf-8"?>
<!-- Generator: Adobe Illustrator 26.0.1, SVG Export Plug-In . SVG Version: 6.00 Build 0)  -->
<svg version="1.1" id="Layer_1" xmlns="http://www.w3.org/2000/svg" xmlns:xlink="http://www.w3.org/1999/xlink" x="0px" y="0px"
	 viewBox="0 0 277.83 50.09" style="enable-background:new 0 0 277.83 50.09;" xml:space="preserve">
<style type="text/css">
	.st0{fill:#FFFFFF;}
	.st1{fill:#3858A7;}
	.st2{fill:none;stroke:#000000;stroke-miterlimit:10;}
	.st3{fill:#3B3B4D;}
	.st4{fill:#28ABE2;}
	.st5{fill:#2D2D35;}
	.st6{fill:#218CB2;}
	.st7{fill:#636464;}
	.st8{fill:#184C7B;}
	.st9{fill:#0D1337;}
	.st10{fill:#5B8E3E;}
	.st11{fill:#FDB515;}
	.st12{fill:#E02129;}
	.st13{fill:#3A78BD;}
	.st14{fill:#EC2C25;}
	.st15{fill:#1B4894;}
	.st16{fill:#234093;}
	.st17{fill:#243E96;}
	.st18{fill:#70C8BC;}
</style>
<g>
	<path d="M12.03,34.95c0-1.6,1.3-2.9,2.9-2.9c1.6,0,2.9,1.3,2.9,2.9c0,1.6-1.3,2.9-2.9,2.9C13.33,37.85,12.03,36.55,12.03,34.95z"/>
	<path d="M12.03,25.94c0-1.6,1.3-2.9,2.9-2.9c1.6,0,2.9,1.3,2.9,2.9c0,1.61-1.3,2.9-2.9,2.9C13.33,28.84,12.03,27.55,12.03,25.94z"
		/>
	<path d="M12.03,16.94c0-1.61,1.3-2.9,2.9-2.9c1.6,0,2.9,1.29,2.9,2.9c0,1.6-1.3,2.9-2.9,2.9C13.33,19.84,12.03,18.54,12.03,16.94z"
		/>
	<path d="M12.16,8.8h5.54c-0.37,1.18-1.47,2.03-2.77,2.03C13.63,10.83,12.53,9.98,12.16,8.8z"/>
	<path class="st0" d="M40.33,15.75v22.36c0,3.83-3.11,6.94-6.94,6.94H11.03c-3.84,0-6.95-3.11-6.95-6.94V15.75
		c0-3.84,3.11-6.95,6.95-6.95h0.41v30.03h6.98V8.8h2.7v6.92h3.25c1.58,0,2.86,1.28,2.86,2.86s-1.28,2.86-2.86,2.86h-3.25v7
		l6.52,10.39h8.24l-7.16-11.42c3.31-1.63,5.49-5.03,5.49-8.83c0-5.06-3.83-9.24-8.75-9.78h7.93C37.22,8.8,40.33,11.91,40.33,15.75z"
		/>
	<path class="st0" d="M17.83,34.95c0,1.6-1.3,2.9-2.9,2.9c-1.6,0-2.9-1.3-2.9-2.9c0-1.6,1.3-2.9,2.9-2.9
		C16.53,32.05,17.83,33.35,17.83,34.95z"/>
	<path class="st0" d="M17.83,25.94c0,1.61-1.3,2.9-2.9,2.9c-1.6,0-2.9-1.29-2.9-2.9c0-1.6,1.3-2.9,2.9-2.9
		C16.53,23.04,17.83,24.34,17.83,25.94z"/>
	<path class="st0" d="M17.83,16.94c0,1.6-1.3,2.9-2.9,2.9c-1.6,0-2.9-1.3-2.9-2.9c0-1.61,1.3-2.9,2.9-2.9
		C16.53,14.04,17.83,15.33,17.83,16.94z"/>
	<path class="st8" d="M17.83,7.93c0,0.28-0.04,0.56-0.12,0.81c0,0.02-0.01,0.04-0.01,0.06c-0.37,1.18-1.47,2.03-2.77,2.03
		c-1.3,0-2.4-0.85-2.77-2.03c0-0.02-0.01-0.04-0.01-0.06c-0.08-0.25-0.12-0.53-0.12-0.81c0-1.6,1.3-2.9,2.9-2.9
		C16.53,5.03,17.83,6.33,17.83,7.93z"/>
	<path class="st10" d="M17.83,34.95c0,1.6-1.3,2.9-2.9,2.9c-1.6,0-2.9-1.3-2.9-2.9c0-1.6,1.3-2.9,2.9-2.9
		C16.53,32.05,17.83,33.35,17.83,34.95z"/>
	<path class="st11" d="M17.83,25.94c0,1.61-1.3,2.9-2.9,2.9c-1.6,0-2.9-1.29-2.9-2.9c0-1.6,1.3-2.9,2.9-2.9
		C16.53,23.04,17.83,24.34,17.83,25.94z"/>
	<path class="st12" d="M17.83,16.94c0,1.6-1.3,2.9-2.9,2.9c-1.6,0-2.9-1.3-2.9-2.9c0-1.61,1.3-2.9,2.9-2.9
		C16.53,14.04,17.83,15.33,17.83,16.94z"/>
	<g>
		<g>
			<path class="st0" d="M55.88,37.86l-4.49-8.15h-1.26v8.15h-5.26V16.26h8.83c1.7,0,3.15,0.3,4.35,0.89c1.2,0.6,2.1,1.41,2.69,2.45
				c0.59,1.04,0.89,2.19,0.89,3.46c0,1.44-0.4,2.72-1.21,3.84c-0.81,1.13-2,1.93-3.58,2.4l4.98,8.55H55.88z M50.13,25.98h3.26
				c0.96,0,1.69-0.24,2.17-0.71c0.48-0.47,0.72-1.14,0.72-2c0-0.82-0.24-1.47-0.72-1.94c-0.48-0.47-1.2-0.71-2.17-0.71h-3.26V25.98z
				"/>
			<path class="st0" d="M80.02,30.54h-11.9c0.08,1.07,0.43,1.88,1.03,2.45c0.6,0.56,1.35,0.85,2.23,0.85c1.31,0,2.22-0.55,2.74-1.66
				h5.6c-0.29,1.13-0.81,2.14-1.55,3.04c-0.75,0.9-1.69,1.61-2.81,2.12c-1.13,0.51-2.39,0.77-3.78,0.77c-1.68,0-3.18-0.36-4.49-1.08
				c-1.31-0.72-2.34-1.74-3.08-3.08c-0.74-1.33-1.11-2.89-1.11-4.68s0.36-3.34,1.09-4.68c0.73-1.33,1.75-2.36,3.06-3.08
				c1.31-0.72,2.82-1.08,4.52-1.08c1.66,0,3.14,0.35,4.43,1.05c1.29,0.7,2.3,1.69,3.03,2.98c0.73,1.29,1.09,2.8,1.09,4.52
				C80.12,29.49,80.08,30,80.02,30.54z M74.73,27.61c0-0.9-0.31-1.62-0.92-2.15c-0.62-0.53-1.38-0.8-2.31-0.8
				c-0.88,0-1.63,0.26-2.23,0.77c-0.6,0.51-0.98,1.24-1.12,2.18H74.73z"/>
			<path class="st0" d="M81.95,24.6c0.73-1.33,1.74-2.36,3.05-3.08c1.3-0.72,2.79-1.08,4.48-1.08c2.15,0,3.95,0.56,5.4,1.69
				c1.45,1.13,2.39,2.72,2.85,4.77h-5.6c-0.47-1.31-1.38-1.97-2.74-1.97c-0.96,0-1.73,0.37-2.31,1.12
				c-0.57,0.75-0.86,1.82-0.86,3.21c0,1.39,0.29,2.47,0.86,3.21c0.57,0.75,1.34,1.12,2.31,1.12c1.35,0,2.27-0.66,2.74-1.97h5.6
				c-0.45,2.01-1.4,3.59-2.86,4.74c-1.46,1.15-3.25,1.72-5.38,1.72c-1.68,0-3.17-0.36-4.48-1.08c-1.3-0.72-2.32-1.74-3.05-3.08
				c-0.73-1.33-1.09-2.89-1.09-4.68S81.22,25.93,81.95,24.6z"/>
			<path class="st0" d="M107.09,21.32c0.92-0.54,1.95-0.82,3.08-0.82v5.57h-1.44c-1.31,0-2.3,0.28-2.95,0.85
				c-0.66,0.56-0.98,1.55-0.98,2.97v7.97h-5.26V20.69h5.26v2.86C105.4,22.61,106.17,21.87,107.09,21.32z"/>
			<path class="st0" d="M128.65,20.69v17.16h-5.26v-2.34c-0.53,0.76-1.26,1.37-2.17,1.83c-0.91,0.46-1.92,0.69-3.03,0.69
				c-1.31,0-2.47-0.29-3.48-0.88c-1.01-0.58-1.78-1.43-2.34-2.54c-0.55-1.11-0.83-2.41-0.83-3.91V20.69h5.23v9.32
				c0,1.15,0.3,2.04,0.89,2.68c0.59,0.64,1.39,0.95,2.4,0.95c1.03,0,1.83-0.32,2.43-0.95c0.59-0.64,0.89-1.53,0.89-2.68v-9.32
				H128.65z"/>
			<path class="st0" d="M131.83,18.09c-0.58-0.54-0.88-1.21-0.88-2.01c0-0.82,0.29-1.5,0.88-2.05c0.58-0.54,1.34-0.82,2.26-0.82
				c0.9,0,1.65,0.27,2.23,0.82c0.58,0.54,0.88,1.23,0.88,2.05c0,0.8-0.29,1.47-0.88,2.01c-0.58,0.54-1.33,0.81-2.23,0.81
				C133.17,18.91,132.42,18.64,131.83,18.09z M136.71,20.69v17.16h-5.26V20.69H136.71z"/>
			<path class="st0" d="M149.1,33.4v4.46h-2.68c-1.91,0-3.39-0.47-4.46-1.4c-1.07-0.93-1.6-2.46-1.6-4.57v-6.83h-2.09v-4.37h2.09
				v-4.18h5.26v4.18h3.45v4.37h-3.45v6.89c0,0.51,0.12,0.88,0.37,1.11c0.25,0.23,0.66,0.34,1.23,0.34H149.1z"/>
			<path class="st0" d="M178.03,22.45c1.26,1.29,1.89,3.09,1.89,5.38v10.03h-5.23v-9.32c0-1.11-0.29-1.96-0.88-2.57
				c-0.58-0.6-1.39-0.91-2.41-0.91c-1.03,0-1.83,0.3-2.41,0.91c-0.58,0.61-0.88,1.46-0.88,2.57v9.32h-5.23v-9.32
				c0-1.11-0.29-1.96-0.88-2.57c-0.58-0.6-1.39-0.91-2.41-0.91c-1.03,0-1.83,0.3-2.41,0.91c-0.58,0.61-0.88,1.46-0.88,2.57v9.32
				h-5.26V20.69h5.26v2.15c0.53-0.72,1.23-1.29,2.09-1.71c0.86-0.42,1.84-0.63,2.92-0.63c1.29,0,2.44,0.28,3.46,0.83
				c1.02,0.55,1.81,1.34,2.38,2.37c0.59-0.94,1.4-1.71,2.43-2.31c1.03-0.59,2.14-0.89,3.35-0.89
				C175.07,20.51,176.77,21.15,178.03,22.45z"/>
			<path class="st0" d="M198.72,30.54h-11.9c0.08,1.07,0.43,1.88,1.03,2.45c0.6,0.56,1.35,0.85,2.23,0.85
				c1.31,0,2.22-0.55,2.74-1.66h5.6c-0.29,1.13-0.81,2.14-1.55,3.04c-0.75,0.9-1.69,1.61-2.81,2.12c-1.13,0.51-2.39,0.77-3.78,0.77
				c-1.68,0-3.18-0.36-4.49-1.08c-1.31-0.72-2.34-1.74-3.08-3.08c-0.74-1.33-1.11-2.89-1.11-4.68s0.36-3.34,1.09-4.68
				c0.73-1.33,1.75-2.36,3.06-3.08c1.31-0.72,2.82-1.08,4.52-1.08c1.66,0,3.14,0.35,4.43,1.05c1.29,0.7,2.3,1.69,3.03,2.98
				c0.73,1.29,1.09,2.8,1.09,4.52C198.81,29.49,198.78,30,198.72,30.54z M193.43,27.61c0-0.9-0.31-1.62-0.92-2.15
				c-0.62-0.53-1.38-0.8-2.31-0.8c-0.88,0-1.63,0.26-2.23,0.77c-0.61,0.51-0.98,1.24-1.12,2.18H193.43z"/>
			<path class="st0" d="M215.86,22.46c1.2,1.3,1.8,3.09,1.8,5.37v10.03h-5.23v-9.32c0-1.15-0.3-2.04-0.89-2.68
				c-0.59-0.64-1.39-0.95-2.4-0.95s-1.8,0.32-2.4,0.95c-0.59,0.64-0.89,1.53-0.89,2.68v9.32h-5.26V20.69h5.26v2.28
				c0.53-0.76,1.25-1.36,2.15-1.8c0.9-0.44,1.92-0.66,3.05-0.66C213.06,20.51,214.66,21.16,215.86,22.46z"/>
			<path class="st0" d="M229.9,33.4v4.46h-2.68c-1.91,0-3.39-0.47-4.46-1.4c-1.07-0.93-1.6-2.46-1.6-4.57v-6.83h-2.09v-4.37h2.09
				v-4.18h5.26v4.18h3.45v4.37h-3.45v6.89c0,0.51,0.12,0.88,0.37,1.11c0.25,0.23,0.66,0.34,1.23,0.34H229.9z"/>
		</g>
	</g>
	<rect x="255.66" y="16.26" class="st12" width="5.26" height="6.17"/>
	<g>
		<g>
			<path class="st18" d="M273.74,16.26v12.89c0,1.93-0.41,3.56-1.23,4.89c-0.82,1.33-1.92,2.33-3.3,3.01
				c-1.39,0.67-2.93,1.02-4.63,1.02c-1.7,0-3.23-0.34-4.57-1c-1.35-0.67-2.41-1.67-3.19-3.01c-0.77-1.35-1.17-2.98-1.17-4.9v-0.88
				h-11.31v-6.78l-5.17,7.81h12.58v4.55h-2.52v4h-5.26v-4h-10.34v-4.24l9.72-13.9h5.88v7.72h11.68v5.75c0,1.29,0.32,2.29,0.96,2.98
				c0.63,0.7,1.57,1.04,2.8,1.04c1.23,0,2.18-0.34,2.83-1.04c0.66-0.69,0.98-1.69,0.98-2.98V16.26H273.74z"/>
		</g>
	</g>
</g>
</svg>
